<?xml version="1.0" encoding="UTF-8"?>
<svg id="Layer_1" data-name="Layer 1" xmlns="http://www.w3.org/2000/svg" viewBox="0 0 1081 1081">
  <defs>
    <style>
      .cls-1 {
        stroke-width: 5px;
      }

      .cls-1, .cls-2, .cls-3, .cls-4 {
        stroke-miterlimit: 10;
      }

      .cls-1, .cls-3 {
        fill-rule: evenodd;
      }

      .cls-1, .cls-3, .cls-4 {
        fill: #f1f1f1;
        stroke: #2b2a29;
      }

      .cls-2 {
        fill: #e31e24;
        stroke: #000;
      }

      .cls-4 {
        stroke-width: 9.54px;
      }
    </style>
  </defs>
  <rect class="cls-2" x=".5" y=".5" width="1080" height="1080" rx="143.19" ry="143.19"/>
  <path class="cls-1" d="M624.14,176.33c171.65,0,274.55,163.87,229.28,364.58-45.09,200.7-221.99,364.58-393.48,364.58-171.65,0-274.61-163.88-229.28-364.58,13.74-61.25,39.83-119.19,74.41-169.87-34.77-28.15-88.15-33.95-88.15-33.95,0,0,56.79-8.27,92.39-53.79,27.93-36,46.31-87.73,50.55-107.59.24,0,.4.21.6.21,4.06,18.41,17.62,57.93,38.63,90.83,67.34-56.29,146.8-90.42,225.06-90.42h0ZM633.23,564.93c2.2,10.74,10.31,36.2,22.83,54,16.4,23.16,42.86,27.31,42.86,27.31,0,0-28.9,3.53-44.87,20.89-13.56,14.69-18.42,40.78-21.43,60.84v5.79c-.2-1.06-.4-2.06-.4-3.12-.22.83-.42,1.47-.42,2.28v-4.35c-3.01-19.86-7.47-45.93-20.81-60.62-15.79-17.38-44.69-20.91-44.69-20.91,0,0,26.49-4.14,43.08-27.3,13.14-18.42,21.61-44.69,23.64-54.82h.21ZM632.82,564.71c0,7.45-.2,22.35.2,0,0,0,0,0-.2,0ZM411.02,283.73c35.17,43.85,89.98,51.72,89.98,51.72,0,0-61.69,6.82-96.06,40.76-29.1,28.98-39.2,80.08-46.12,119.39,0,7.23,0,11.37,0,11.37-.18-2.06-.59-4.14-.98-6.01-.2,1.46-.4,2.91-.62,4.35,0,0,0-3.09,0-8.49-5.84-36.39-14.55-83.37-39.19-112.96-30.34,44.68-53.19,95.58-65.33,149.6-39.83,176.69,50.75,320.7,201.79,320.7,151.06,0,306.53-144.01,346.39-320.7,39.83-176.91-50.77-320.93-201.83-320.93-64.87,0-130.81,26.69-188.02,71.19h0ZM359.65,175.51c-.38,14.48-.83,43.85,0,0h0Z"/>
  <path class="cls-4" d="M92.04,476.35c3.83-34.64,12.3-63.12,25.57-85.54,13.26-22.38,29.21-39.09,47.85-50.06,18.63-10.97,40.36-16.46,65.24-16.46,36,0,63.87,12.99,83.75,39.04,19.79,26.06,27.09,63.14,21.82,111.26-5.28,48.57-21.47,86.6-48.45,113.96-23.69,24.22-53.61,36.27-89.73,36.27-36.46,0-63.86-11.98-82.32-35.86-21.03-27.34-28.91-64.91-23.73-112.62ZM144.6,474.4c-3.67,33.43.31,58.47,11.81,75.18,11.63,16.72,27.3,25.1,47.14,25.1s37.35-8.31,52.31-24.88c14.97-16.6,24.23-42.04,28-76.42,3.66-33.69.04-58.6-11-74.76-10.95-16.11-26.76-24.18-47.43-24.18s-38.41,8.13-53.11,24.38c-14.77,16.3-24.04,41.5-27.73,75.58h0ZM405.99,619.89h-48.35l23.02-210.53h44.8l-3.29,29.91c9.26-14.01,17.12-23.27,23.65-27.88,6.6-4.54,13.86-6.83,21.76-6.83,11.01,0,21.18,3.51,30.49,10.55l-20.37,48.51c-7.32-6.01-14.49-9.06-21.64-9.06-6.72,0-12.82,2.3-18.4,7.04-5.66,4.67-10.21,13.12-13.79,25.44-3.56,12.31-7.17,34.91-10.75,67.83l-7.12,65.01h0ZM522.54,380.82l5.65-51.58h48.3l-5.65,51.58h-48.29ZM496.4,619.89l23.02-210.53h48.33l-23.01,210.53h-48.34ZM594.62,511.63c2.25-20.59,8.67-39.4,19.15-56.3,10.49-16.94,23.19-29.59,38.08-38.03,14.89-8.47,31.07-12.73,48.49-12.73,29.32,0,51.07,10.9,65.51,32.62,14.33,21.78,19.91,47.19,16.76,76.26-2.37,21.66-8.87,41.23-19.51,58.68-10.59,17.45-23.46,30.58-38.57,39.32-15.19,8.79-31.16,13.19-47.99,13.19-27.1,0-48.54-9.74-64.25-29.29-15.72-19.56-21.61-47.44-17.65-83.71h0ZM643.74,514.6c-2.34,21.3.25,37.43,7.85,48.31,7.59,10.9,17.65,16.3,30.08,16.3s23.1-5.47,32.94-16.42c9.86-10.96,15.99-27.15,18.33-48.62,2.24-20.83-.4-36.73-8-47.77-7.59-10.96-17.48-16.43-29.78-16.43s-23.16,5.47-33.09,16.43c-9.89,11.03-16.03,27.08-18.32,48.19h0ZM974.63,619.89h-48.38l11.77-107.45c2.34-21.53,2.96-35.88,1.98-43.05-1.01-7.09-3.84-12.58-8.34-16.43-4.51-3.78-9.96-5.77-16.26-5.77-8.05,0-15.72,2.53-22.8,7.46-7.04,4.94-12.44,11.77-16.03,20.51-3.59,8.72-6.75,25.16-9.42,49.39l-10.38,95.35h-48.32l23.01-210.53h44.8l-3.42,30.94c9.26-11.93,19.17-20.85,29.81-26.81,10.64-5.94,21.97-8.93,34.1-8.93,14.17,0,25.65,3.51,34.59,10.44,8.98,6.94,14.66,15.87,17.15,26.78,2.52,10.89,2.66,26.66.42,47.23l-14.29,130.87h0Z"/>
  <path class="cls-3" d="M92.04,476.35c3.83-34.64,12.3-63.12,25.57-85.54,13.26-22.39,29.21-39.09,47.85-50.06,18.64-10.97,40.36-16.46,65.24-16.46,36,0,63.87,12.99,83.75,39.04,19.79,26.06,27.09,63.14,21.81,111.26-5.28,48.57-21.47,86.6-48.45,113.96-23.69,24.22-53.61,36.27-89.74,36.27-36.46,0-63.86-11.98-82.31-35.86-21.03-27.34-28.91-64.9-23.73-112.62h0ZM144.6,474.4c-3.67,33.43.31,58.47,11.81,75.18,11.63,16.72,27.29,25.1,47.14,25.1s37.34-8.31,52.32-24.88c14.97-16.6,24.22-42.04,28-76.42,3.65-33.69.04-58.6-11.01-74.76-10.95-16.11-26.76-24.18-47.42-24.18s-38.41,8.13-53.1,24.38c-14.77,16.31-24.04,41.49-27.73,75.59h0ZM405.99,619.89h-48.36l23.02-210.53h44.8l-3.29,29.91c9.26-14.01,17.12-23.27,23.65-27.88,6.59-4.53,13.86-6.83,21.76-6.83,11.01,0,21.18,3.51,30.49,10.56l-20.37,48.51c-7.32-6.01-14.49-9.06-21.65-9.06-6.72,0-12.82,2.3-18.4,7.04-5.66,4.67-10.2,13.12-13.79,25.44-3.55,12.31-7.17,34.91-10.75,67.83l-7.12,65.01h0ZM522.55,380.82l5.64-51.58h48.3l-5.66,51.58h-48.29,0ZM496.4,619.89l23.02-210.53h48.32l-23.01,210.53h-48.34ZM594.61,511.62c2.25-20.59,8.67-39.4,19.15-56.3,10.5-16.94,23.18-29.58,38.08-38.03,14.88-8.47,31.07-12.73,48.49-12.73,29.32,0,51.07,10.9,65.52,32.61,14.33,21.79,19.91,47.19,16.75,76.26-2.37,21.66-8.87,41.23-19.51,58.68-10.59,17.45-23.46,30.58-38.57,39.32-15.19,8.79-31.16,13.19-47.99,13.19-27.1,0-48.54-9.74-64.25-29.29-15.72-19.57-21.61-47.45-17.65-83.71h0ZM643.74,514.6c-2.34,21.3.25,37.43,7.85,48.31,7.59,10.9,17.66,16.31,30.08,16.31s23.09-5.47,32.93-16.42c9.86-10.96,15.99-27.15,18.33-48.61,2.24-20.83-.4-36.74-8-47.77-7.59-10.96-17.49-16.43-29.77-16.43s-23.17,5.47-33.1,16.43c-9.89,11.03-16.03,27.08-18.32,48.19h0ZM974.62,619.89h-48.37l11.77-107.45c2.33-21.53,2.95-35.88,1.97-43.05-1-7.09-3.84-12.58-8.34-16.43-4.51-3.78-9.95-5.77-16.25-5.77-8.05,0-15.72,2.53-22.8,7.46-7.04,4.94-12.43,11.77-16.03,20.51-3.59,8.72-6.75,25.17-9.42,49.39l-10.38,95.35h-48.32l23.02-210.53h44.8l-3.42,30.94c9.26-11.93,19.17-20.85,29.81-26.81,10.64-5.95,21.96-8.93,34.1-8.93,14.17,0,25.65,3.51,34.59,10.44,8.98,6.95,14.66,15.87,17.14,26.78,2.52,10.89,2.66,26.66.42,47.23l-14.29,130.87h0Z"/>
</svg>